<svg xmlns="http://www.w3.org/2000/svg" xmlns:xlink="http://www.w3.org/1999/xlink">

<symbol id="github" fill-rule="evenodd" clip-rule="evenodd" stroke-linejoin="round" stroke-miterlimit="1.414" viewBox="0 0 16 16"><path d="M8 0C3.58 0 0 3.582 0 8c0 3.535 2.292 6.533 5.47 7.59.4.075.547-.172.547-.385 0-.19-.007-.693-.01-1.36-2.226.483-2.695-1.073-2.695-1.073-.364-.924-.89-1.17-.89-1.17-.725-.496.056-.486.056-.486.803.056 1.225.824 1.225.824.714 1.223 1.873.87 2.33.665.072-.517.278-.87.507-1.07-1.777-.2-3.644-.888-3.644-3.953 0-.873.31-1.587.823-2.147-.09-.202-.36-1.015.07-2.117 0 0 .67-.215 2.2.82.64-.178 1.32-.266 2-.27.68.004 1.36.092 2 .27 1.52-1.035 2.19-.82 2.19-.82.43 1.102.16 1.915.08 2.117.51.56.82 1.274.82 2.147 0 3.073-1.87 3.75-3.65 3.947.28.24.54.73.54 1.48 0 1.07-.01 1.93-.01 2.19 0 .21.14.46.55.38C13.71 14.53 16 11.53 16 8c0-4.418-3.582-8-8-8"/>
</symbol>
<symbol id="nexusmods" fill-rule="evenodd" clip-rule="evenodd" stroke-linejoin="round" stroke-miterlimit="1.414" viewBox="0 0 16 16"><g
   style="color:black;text-decoration:none;text-decoration-line:none;text-decoration-style:solid;text-decoration-color:black;-webkit-text-emphasis-color:rgb(87, 165, 204);-webkit-text-fill-color:rgb(87, 165, 204);-webkit-text-stroke-color:rgb(87, 165, 204)"
   id="g56"
   transform="matrix(0.09832711,0,0,0.09832711,-0.00126746,0)">
   <g
      style="color:black;text-decoration:none;text-decoration-line:none;text-decoration-style:solid;text-decoration-color:black;-webkit-text-emphasis-color:rgb(87, 165, 204);-webkit-text-fill-color:rgb(87, 165, 204);-webkit-text-stroke-color:rgb(87, 165, 204)"
      id="g6">
   <g
      style="color:black;text-decoration:none;text-decoration-line:none;text-decoration-style:solid;text-decoration-color:black;-webkit-text-emphasis-color:rgb(87, 165, 204);-webkit-text-fill-color:rgb(87, 165, 204);-webkit-text-stroke-color:rgb(87, 165, 204)"
      id="g4">
      <path
         d="m 44.4,162.5 c -0.6,0 -1.3,0 -1.9,-0.1 -1.5,-0.2 -2.9,-0.5 -4.5,-1 -2.8,-0.9 -5.2,-2.2 -6.9,-3.2 -3.8,-2.2 -7.7,-4.9 -11.8,-8.3 -1.8,-1.5 -3.6,-3.1 -5.3,-4.7 l -1.4,-1.4 c -1,-0.9 -1.9,-1.9 -2.6,-3 -1.3,-2 -2.4,-4.6 -2.5,-8 -0.1,-1.1 -0.2,-2.2 -0.2,-3.4 0,-2.4 0.1,-5 0.5,-7.5 0.7,-5.2 2.4,-9.8 3.7,-13.3 0.1,-0.3 0.2,-0.6 0.3,-0.9 -0.4,-0.9 -0.7,-1.9 -1.1,-2.9 C 8.9,99.6 7.7,93.8 7.1,88 6.5,81.9 6.7,75.7 7.6,69.6 7.8,68.3 8,67 8.3,65.8 5.9,62.3 2.9,57.3 1,51.5 v -0.1 c -0.4,-1.2 -1.4,-4.2 -0.8,-8 0.2,-1.4 0.5,-2.8 1,-4.3 0.9,-2.8 2.2,-5.1 3.2,-6.8 2.2,-3.8 4.9,-7.6 8.2,-11.7 1.5,-1.8 3,-3.6 4.6,-5.2 L 18.6,14 c 0.7,-0.8 1.5,-1.5 2.4,-2.1 2,-1.5 4.8,-2.8 8.6,-2.9 1.2,-0.1 2.5,-0.2 3.8,-0.2 h 0.1 c 2.5,0 5.2,0.2 7.8,0.6 4,0.6 7.6,1.7 10.8,2.9 2.1,-0.9 4.3,-1.7 6.6,-2.5 5.4,-1.8 11.2,-3 17,-3.4 6.1,-0.5 12.3,-0.2 18.2,0.8 1.4,0.2 2.8,0.5 4.2,0.8 4.7,-3.2 9,-5.5 13.5,-6.9 h 0.1 c 1,-0.4 3.2,-1.1 6.1,-1.1 0.6,0 1.3,0 1.9,0.1 1.5,0.2 2.9,0.5 4.5,1 2.8,0.9 5.2,2.2 6.9,3.2 3.8,2.2 7.7,4.9 11.8,8.3 1.8,1.5 3.6,3.1 5.3,4.7 l 1.4,1.4 c 0.7,0.6 1.4,1.3 1.9,2.1 1.8,2.3 3.2,5.6 3.3,10.2 0.1,1.6 0.1,3.3 0,5 -0.2,3.7 -0.7,7.2 -1.6,10.4 -0.7,2.4 -1.5,4.8 -2.4,7.2 1.8,4.5 3.1,9.1 4,13.8 1.8,9.9 1.6,20.1 -0.6,29.9 1.3,1.9 2.5,3.7 3.5,5.5 1.7,3 3.1,6.1 4.1,9.3 0.4,1.2 1.3,4.2 0.7,8.2 -0.2,1.4 -0.6,2.7 -1.1,4.2 -1.8,5.1 -4.6,9.3 -7.1,12.8 -2.7,3.8 -5.8,7.5 -9,10.9 l -1.2,1.2 c -0.7,0.8 -1.5,1.5 -2.4,2.2 -2,1.5 -4.8,2.7 -8.6,2.9 -1.2,0.1 -2.5,0.2 -3.8,0.2 h -0.1 c -2.7,0 -5.4,-0.2 -8.2,-0.7 -4.5,-0.7 -8.5,-2.1 -12.1,-3.5 -1.9,0.8 -3.9,1.5 -5.8,2.1 -5.6,1.7 -11.5,2.8 -17.4,3.1 -6.1,0.4 -12.3,-0.1 -18.3,-1.2 -0.7,-0.1 -1.5,-0.3 -2.2,-0.4 -5.2,3.7 -9.8,6.1 -14.6,7.7 h -0.1 c -1,-0.1 -3.2,0.7 -6.1,0.7 z m -19.8,-28.4 10.6,3.7 c 0.9,-2.6 1,-5.4 0.4,-8 0,0.2 0,0.5 0.1,0.7 0,0.3 0.1,0.7 0.1,1.1 -0.1,-2 -0.8,-4.6 -2.6,-7 -0.7,-0.9 -1.5,-1.7 -2.4,-2.4 l 0.5,0.4 0.9,0.9 c -0.8,-0.8 -1.7,-1.6 -2.7,-2.3 z m 99.1,-4.7 c -0.8,0.8 -1.6,1.6 -2.3,2.7 l 11.9,4.6 v -11.1 c 0,0 0,0 0,0 -1.1,0 -2.2,0.1 -3.2,0.4 0.2,0 0.4,0 0.6,0 0.3,0 0.7,-0.1 1.1,-0.1 -1.8,0.1 -4.2,0.7 -6.4,2.1 -1.2,0.8 -2.2,1.7 -3.1,2.9 l 0.4,-0.5 z m -87.9,-2.6 c 0.5,0.4 1,0.8 1.5,1.3 2.6,2.2 5,3.9 7.2,5.2 1.4,-0.7 3,-1.7 4.7,-3 0.5,-0.3 0.9,-0.7 1.4,-1.1 0.3,-0.2 0.5,-0.5 0.8,-0.7 0.1,-0.1 0.3,-0.3 0.4,-0.4 l 6.2,-6.3 8.4,2.9 c 0.3,0.1 0.6,0.2 0.8,0.3 1.8,0.6 3.6,1 5.4,1.4 3.7,0.7 7.6,1 11.4,0.7 3.6,-0.2 7.3,-0.9 10.7,-1.9 1.7,-0.5 3.4,-1.1 5,-1.9 0.8,-0.3 1.6,-0.7 2.3,-1.1 2,-1 4.3,-1.6 6.6,-1.6 3.6,0 6.3,1.3 7.6,2 0.4,0.2 0.8,0.4 1.3,0.5 2.5,1 5.4,2.2 8,2.6 0.4,0.1 0.9,0.1 1.3,0.2 1.5,-1.7 2.9,-3.5 4.2,-5.3 0.8,-1.1 1.6,-2.2 2.3,-3.3 -0.1,-0.2 -0.2,-0.4 -0.4,-0.7 -0.7,-1.2 -1.5,-2.4 -2.5,-3.9 -0.3,-0.5 -0.7,-0.9 -1.1,-1.4 -0.2,-0.2 -0.3,-0.4 -0.5,-0.6 -4.1,-4 -5.5,-9.7 -3.6,-15.1 0.1,-0.3 0.2,-0.6 0.3,-0.8 2.3,-7.2 2.7,-14.9 1.4,-22.3 -0.7,-3.5 -1.7,-7 -3.2,-10.3 -0.1,-0.3 -0.3,-0.6 -0.4,-0.9 -3.3,-6.1 -1.9,-11.3 -0.7,-13.8 0.5,-1 0.9,-2.1 1.3,-3.1 0.8,-1.9 1.4,-3.9 2,-5.7 0.2,-0.9 0.4,-1.8 0.5,-2.9 -0.5,-0.4 -1,-0.8 -1.5,-1.3 -2.7,-2.2 -5,-3.9 -7.2,-5.2 -1.4,0.8 -3,1.8 -4.8,3 -0.5,0.4 -1,0.8 -1.5,1.2 -0.1,0.1 -0.3,0.2 -0.4,0.4 -2.7,2.6 -6.3,4 -10,4 -1.8,0 -3.5,-0.3 -5.2,-1 C 95.4,36.8 95,36.6 94.6,36.5 92.8,36 91,35.5 89.1,35.2 85.4,34.6 81.5,34.4 77.7,34.7 c -3.6,0.3 -7.2,1 -10.6,2.1 -1.7,0.5 -3.3,1.2 -4.9,1.9 -0.8,0.3 -1.5,0.7 -2.3,1.1 L 59.5,40 c -2.1,1.2 -4.6,1.8 -7,1.8 -2.2,0 -4.4,-0.5 -6.5,-1.5 -0.5,-0.2 -0.9,-0.4 -1.4,-0.6 -2.4,-1 -5.3,-2.1 -7.8,-2.4 -0.4,-0.1 -0.8,-0.1 -1.1,-0.2 -0.4,0.5 -0.8,1 -1.2,1.4 -2.2,2.7 -3.9,5 -5.2,7.3 0.7,1.4 1.7,2.9 2.9,4.7 0.3,0.5 0.7,1 1.1,1.4 0.2,0.3 0.5,0.5 0.7,0.8 l 5.8,6.1 -2.5,8 c -0.2,0.5 -0.3,1 -0.5,1.5 -0.5,1.8 -0.9,3.7 -1.2,5.6 -0.6,3.8 -0.7,7.6 -0.3,11.5 0.3,3.6 1.1,7.2 2.3,10.6 0.6,1.7 1.3,3.3 2,4.9 0.1,0.2 0.2,0.4 0.3,0.6 2.1,4.3 2.1,9.1 -0.1,13.4 -0.2,0.4 -0.4,0.8 -0.5,1.2 -0.4,1 -0.9,2 -1.3,3 -0.8,2.2 -1.8,4.8 -2.1,7.1 0,0.1 -0.1,0.4 -0.1,0.6 z m 94.1,-88 c 0.8,0.8 1.7,1.6 2.8,2.4 L 137.6,28.3 127,24.6 c -0.9,2.6 -1,5.4 -0.4,8 0,-0.1 0,-0.2 0,-0.3 0,-0.3 0,-0.8 0,-1.3 v -0.1 c 0,1.5 0.5,4 2.1,6.4 0.8,1.1 1.7,2.1 2.8,3 L 131,39.9 Z M 29.3,26.3 v 11.1 c 1.1,0 2.2,-0.1 3.2,-0.4 -0.2,0 -0.4,0 -0.6,0 -0.3,0 -0.7,0.1 -1.1,0.1 1.8,-0.1 4.2,-0.7 6.4,-2.1 1.2,-0.8 2.2,-1.7 3.1,-2.9 l -0.4,0.5 -0.9,1 c 0.8,-0.8 1.6,-1.7 2.3,-2.7 z"
         style="d:path('M 44.4 162.5 C 43.8 162.5 43.1 162.5 42.5 162.4 C 41 162.2 39.6 161.9 38 161.4 C 35.2 160.5 32.8 159.2 31.1 158.2 C 27.3 156 23.4 153.3 19.3 149.9 C 17.5 148.4 15.7 146.8 14 145.2 L 12.6 143.8 C 11.6 142.9 10.7 141.9 10 140.8 C 8.7 138.8 7.6 136.2 7.5 132.8 C 7.4 131.7 7.3 130.6 7.3 129.4 C 7.3 127 7.4 124.4 7.8 121.9 C 8.5 116.7 10.2 112.1 11.5 108.6 C 11.6 108.3 11.7 108 11.8 107.7 C 11.4 106.8 11.1 105.8 10.7 104.8 C 8.9 99.6 7.7 93.8 7.1 88 C 6.5 81.9 6.7 75.7 7.6 69.6 C 7.8 68.3 8 67 8.3 65.8 C 5.9 62.3 2.9 57.3 1 51.5 L 1 51.4 C 0.6 50.2 -0.4 47.2 0.2 43.4 C 0.4 42 0.7 40.6 1.2 39.1 C 2.1 36.3 3.4 34 4.4 32.3 C 6.6 28.5 9.3 24.7 12.6 20.6 C 14.1 18.8 15.6 17 17.2 15.4 L 18.6 14 C 19.3 13.2 20.1 12.5 21 11.9 C 23 10.4 25.8 9.1 29.6 9 C 30.8 8.9 32.1 8.8 33.4 8.8 H 33.5 C 36 8.8 38.7 9 41.3 9.4 C 45.3 10 48.9 11.1 52.1 12.3 C 54.2 11.4 56.4 10.6 58.7 9.8 C 64.1 8 69.9 6.8 75.7 6.4 C 81.8 5.9 88 6.2 93.9 7.2 C 95.3 7.4 96.7 7.7 98.1 8 C 102.8 4.8 107.1 2.5 111.6 1.1 L 111.7 1.1 C 112.7 0.7 114.9 -1.19209e-7 117.8 -1.19209e-7 C 118.4 -1.19209e-7 119.1 -1.19209e-7 119.7 0.0999999 C 121.2 0.3 122.6 0.6 124.2 1.1 C 127 2 129.4 3.3 131.1 4.3 C 134.9 6.5 138.8 9.2 142.9 12.6 C 144.7 14.1 146.5 15.7 148.2 17.3 L 149.6 18.7 C 150.3 19.3 151 20 151.5 20.8 C 153.3 23.1 154.7 26.4 154.8 31 C 154.9 32.6 154.9 34.3 154.8 36 C 154.6 39.7 154.1 43.2 153.2 46.4 C 152.5 48.8 151.7 51.2 150.8 53.6 C 152.6 58.1 153.9 62.7 154.8 67.4 C 156.6 77.3 156.4 87.5 154.2 97.3 C 155.5 99.2 156.7 101 157.7 102.8 C 159.4 105.8 160.8 108.9 161.8 112.1 C 162.2 113.3 163.1 116.3 162.5 120.3 C 162.3 121.7 161.9 123 161.4 124.5 C 159.6 129.6 156.8 133.8 154.3 137.3 C 151.6 141.1 148.5 144.8 145.3 148.2 L 144.1 149.4 C 143.4 150.2 142.6 150.9 141.7 151.6 C 139.7 153.1 136.9 154.3 133.1 154.5 C 131.9 154.6 130.6 154.7 129.3 154.7 H 129.2 C 126.5 154.7 123.8 154.5 121 154 C 116.5 153.3 112.5 151.9 108.9 150.5 C 107 151.3 105 152 103.1 152.6 C 97.5 154.3 91.6 155.4 85.7 155.7 C 79.6 156.1 73.4 155.6 67.4 154.5 C 66.7 154.4 65.9 154.2 65.2 154.1 C 60 157.8 55.4 160.2 50.6 161.8 L 50.5 161.8 C 49.5 161.7 47.3 162.5 44.4 162.5 L 44.4 162.5 Z M 24.6 134.1 L 35.2 137.8 C 36.1 135.2 36.2 132.4 35.6 129.8 C 35.6 130 35.6 130.3 35.7 130.5 C 35.7 130.8 35.8 131.2 35.8 131.6 C 35.7 129.6 35 127 33.2 124.6 C 32.5 123.7 31.7 122.9 30.8 122.2 L 31.3 122.6 L 32.2 123.5 C 31.4 122.7 30.5 121.9 29.5 121.2 L 24.6 134.1 L 24.6 134.1 Z M 123.7 129.4 C 122.9 130.2 122.1 131 121.4 132.1 L 133.3 136.7 L 133.3 125.6 C 133.3 125.6 133.3 125.6 133.3 125.6 C 132.2 125.6 131.1 125.7 130.1 126 C 130.3 126 130.5 126 130.7 126 C 131 126 131.4 125.9 131.8 125.9 C 130 126 127.6 126.6 125.4 128 C 124.2 128.8 123.2 129.7 122.3 130.9 L 122.7 130.4 L 123.7 129.4 L 123.7 129.4 Z M 35.8 126.8 C 36.3 127.2 36.8 127.6 37.3 128.1 C 39.9 130.3 42.3 132 44.5 133.3 C 45.9 132.6 47.5 131.6 49.2 130.3 C 49.7 130 50.1 129.6 50.6 129.2 C 50.9 129 51.1 128.7 51.4 128.5 C 51.5 128.4 51.7 128.2 51.8 128.1 L 58 121.8 L 66.4 124.7 C 66.7 124.8 67 124.9 67.2 125 C 69 125.6 70.8 126 72.6 126.4 C 76.3 127.1 80.2 127.4 84 127.1 C 87.6 126.9 91.3 126.2 94.7 125.2 C 96.4 124.7 98.1 124.1 99.7 123.3 C 100.5 123 101.3 122.6 102 122.2 C 104 121.2 106.3 120.6 108.6 120.6 C 112.2 120.6 114.9 121.9 116.2 122.6 C 116.6 122.8 117 123 117.5 123.1 C 120 124.1 122.9 125.3 125.5 125.7 C 125.9 125.8 126.4 125.8 126.8 125.9 C 128.3 124.2 129.7 122.4 131 120.6 C 131.8 119.5 132.6 118.4 133.3 117.3 C 133.2 117.1 133.1 116.9 132.9 116.6 C 132.2 115.4 131.4 114.2 130.4 112.7 C 130.1 112.2 129.7 111.8 129.3 111.3 C 129.1 111.1 129 110.9 128.8 110.7 C 124.7 106.7 123.3 101 125.2 95.6 C 125.3 95.3 125.4 95 125.5 94.8 C 127.8 87.6 128.2 79.9 126.9 72.5 C 126.2 69 125.2 65.5 123.7 62.2 C 123.6 61.9 123.4 61.6 123.3 61.3 C 120 55.2 121.4 50 122.6 47.5 C 123.1 46.5 123.5 45.4 123.9 44.4 C 124.7 42.5 125.3 40.5 125.9 38.7 C 126.1 37.8 126.3 36.9 126.4 35.8 C 125.9 35.4 125.4 35 124.9 34.5 C 122.2 32.3 119.9 30.6 117.7 29.3 C 116.3 30.1 114.7 31.1 112.9 32.3 C 112.4 32.7 111.9 33.1 111.4 33.5 C 111.3 33.6 111.1 33.7 111 33.9 C 108.3 36.5 104.7 37.9 101 37.9 C 99.2 37.9 97.5 37.6 95.8 36.9 C 95.4 36.8 95 36.6 94.6 36.5 C 92.8 36 91 35.5 89.1 35.2 C 85.4 34.6 81.5 34.4 77.7 34.7 C 74.1 35 70.5 35.7 67.1 36.8 C 65.4 37.3 63.8 38 62.2 38.7 C 61.4 39 60.7 39.4 59.9 39.8 L 59.5 40 C 57.4 41.2 54.9 41.8 52.5 41.8 C 50.3 41.8 48.1 41.3 46 40.3 C 45.5 40.1 45.1 39.9 44.6 39.7 C 42.2 38.7 39.3 37.6 36.8 37.3 C 36.4 37.2 36 37.2 35.7 37.1 C 35.3 37.6 34.9 38.1 34.5 38.5 C 32.3 41.2 30.6 43.5 29.3 45.8 C 30 47.2 31 48.7 32.2 50.5 C 32.5 51 32.9 51.5 33.3 51.9 C 33.5 52.2 33.8 52.4 34 52.7 L 39.8 58.8 L 37.3 66.8 C 37.1 67.3 37 67.8 36.8 68.3 C 36.3 70.1 35.9 72 35.6 73.9 C 35 77.7 34.9 81.5 35.3 85.4 C 35.6 89 36.4 92.6 37.6 96 C 38.2 97.7 38.9 99.3 39.6 100.9 C 39.7 101.1 39.8 101.3 39.9 101.5 C 42 105.8 42 110.6 39.8 114.9 C 39.6 115.3 39.4 115.7 39.3 116.1 C 38.9 117.1 38.4 118.1 38 119.1 C 37.2 121.3 36.2 123.9 35.9 126.2 C 35.9 126.3 35.8 126.6 35.8 126.8 L 35.8 126.8 Z M 129.9 38.8 C 130.7 39.6 131.6 40.4 132.7 41.2 L 137.6 28.3 L 127 24.6 C 126.1 27.2 126 30 126.6 32.6 C 126.6 32.5 126.6 32.4 126.6 32.3 C 126.6 32 126.6 31.5 126.6 31 V 30.9 C 126.6 32.4 127.1 34.9 128.7 37.3 C 129.5 38.4 130.4 39.4 131.5 40.3 L 131 39.9 L 129.9 38.8 L 129.9 38.8 Z M 29.3 26.3 L 29.3 37.4 C 30.4 37.4 31.5 37.3 32.5 37 C 32.3 37 32.1 37 31.9 37 C 31.6 37 31.2 37.1 30.8 37.1 C 32.6 37 35 36.4 37.2 35 C 38.4 34.2 39.4 33.3 40.3 32.1 L 39.9 32.6 L 39 33.6 C 39.8 32.8 40.6 31.9 41.3 30.9 L 29.3 26.3 L 29.3 26.3 Z');color:black;text-decoration:none;text-decoration-line:none;text-decoration-style:solid;text-decoration-color:black;-webkit-text-emphasis-color:rgb(87, 165, 204);-webkit-text-fill-color:rgb(87, 165, 204);-webkit-text-stroke-color:rgb(87, 165, 204)"
         id="path2" />
   </g>
   </g>
   <g
      style="color:black;text-decoration:none;text-decoration-line:none;text-decoration-style:solid;text-decoration-color:black;-webkit-text-emphasis-color:rgb(87, 165, 204);-webkit-text-fill-color:rgb(87, 165, 204);-webkit-text-stroke-color:rgb(87, 165, 204)"
      id="g54">
   <g
      style="color:black;text-decoration:none;text-decoration-line:none;text-decoration-style:solid;text-decoration-color:black;-webkit-text-emphasis-color:rgb(87, 165, 204);-webkit-text-fill-color:rgb(87, 165, 204);-webkit-text-stroke-color:rgb(87, 165, 204)"
      id="g12">
      <g
         style="color:black;text-decoration:none;text-decoration-line:none;text-decoration-style:solid;text-decoration-color:black;-webkit-text-emphasis-color:rgb(87, 165, 204);-webkit-text-fill-color:rgb(87, 165, 204);-webkit-text-stroke-color:rgb(87, 165, 204)"
         id="g10">
         <path
            class="theme-secondary"
            d="M 56.3,88.4 57,116.7 50,111 c -7.8,12.7 -10.3,25 -6.6,34.1 l 1.3,3.2 -3.2,-1.4 c -7.3,-3.2 -13.9,-7.7 -19.4,-13.5 l -0.3,-0.3 -0.1,-0.5 c -0.4,-3.5 -0.2,-7.3 0.7,-11.2 v -0.1 c 1.3,-4.9 3.2,-9.8 5.6,-14.7 1.5,-3.1 3.3,-6.2 5.3,-9.2 l -6.1,-5 z"
            style="d:path('M 56.3 88.4 L 57 116.7 L 50 111 C 42.2 123.7 39.7 136 43.4 145.1 L 44.7 148.3 L 41.5 146.9 C 34.2 143.7 27.6 139.2 22.1 133.4 L 21.8 133.1 L 21.7 132.6 C 21.3 129.1 21.5 125.3 22.4 121.4 L 22.4 121.3 C 23.7 116.4 25.6 111.5 28 106.6 C 29.5 103.5 31.3 100.4 33.3 97.4 L 27.2 92.4 L 56.3 88.4 Z');color:black;text-decoration:none;text-decoration-line:none;text-decoration-style:solid;text-decoration-color:black;fill:#b4762c;-webkit-text-emphasis-color:rgb(87, 165, 204);-webkit-text-fill-color:rgb(87, 165, 204);-webkit-text-stroke-color:rgb(87, 165, 204)"
            id="path8" />
      </g>
   </g>
   <g
      style="color:black;text-decoration:none;text-decoration-line:none;text-decoration-style:solid;text-decoration-color:black;-webkit-text-emphasis-color:rgb(87, 165, 204);-webkit-text-fill-color:rgb(87, 165, 204);-webkit-text-stroke-color:rgb(87, 165, 204)"
      id="g18">
      <g
         style="color:black;text-decoration:none;text-decoration-line:none;text-decoration-style:solid;text-decoration-color:black;-webkit-text-emphasis-color:rgb(87, 165, 204);-webkit-text-fill-color:rgb(87, 165, 204);-webkit-text-stroke-color:rgb(87, 165, 204)"
         id="g16">
         <path
            class="theme-secondary"
            d="m 105.9,74.1 -0.7,-28.3 7,5.7 c 7.8,-12.7 10.3,-25 6.6,-34.1 l -1.3,-3.2 3.2,1.4 c 7.3,3.2 13.9,7.7 19.4,13.5 l 0.3,0.3 0.1,0.5 c 0.4,3.5 0.2,7.3 -0.7,11.2 v 0.1 c -1.3,4.9 -3.2,9.8 -5.6,14.7 -1.5,3.1 -3.3,6.2 -5.3,9.2 l 6.1,5 z"
            style="d:path('M 105.9 74.1 L 105.2 45.8 L 112.2 51.5 C 120 38.8 122.5 26.5 118.8 17.4 L 117.5 14.2 L 120.7 15.6 C 128 18.8 134.6 23.3 140.1 29.1 L 140.4 29.4 L 140.5 29.9 C 140.9 33.4 140.7 37.2 139.8 41.1 L 139.8 41.2 C 138.5 46.1 136.6 51 134.2 55.9 C 132.7 59 130.9 62.1 128.9 65.1 L 135 70.1 L 105.9 74.1 Z');color:black;text-decoration:none;text-decoration-line:none;text-decoration-style:solid;text-decoration-color:black;fill:#b4762c;-webkit-text-emphasis-color:rgb(87, 165, 204);-webkit-text-fill-color:rgb(87, 165, 204);-webkit-text-stroke-color:rgb(87, 165, 204)"
            id="path14" />
      </g>
   </g>
   <g
      style="color:black;text-decoration:none;text-decoration-line:none;text-decoration-style:solid;text-decoration-color:black;-webkit-text-emphasis-color:rgb(87, 165, 204);-webkit-text-fill-color:rgb(87, 165, 204);-webkit-text-stroke-color:rgb(87, 165, 204)"
      id="g24">
      <g
         style="color:black;text-decoration:none;text-decoration-line:none;text-decoration-style:solid;text-decoration-color:black;-webkit-text-emphasis-color:rgb(87, 165, 204);-webkit-text-fill-color:rgb(87, 165, 204);-webkit-text-stroke-color:rgb(87, 165, 204)"
         id="g22">
         <path
            class="theme-secondary"
            d="m 88.5,105.4 28.3,-0.7 -5.7,7 c 12.7,7.8 25,10.3 34.1,6.6 l 3.2,-1.3 -1.4,3.2 c -3.2,7.3 -7.7,13.9 -13.5,19.4 l -0.3,0.3 -0.5,0.1 c -3.5,0.4 -7.3,0.2 -11.2,-0.7 h -0.1 c -4.9,-1.3 -9.8,-3.2 -14.7,-5.6 -3.1,-1.5 -6.2,-3.3 -9.2,-5.3 l -5,6.1 z"
            style="d:path('M 88.5 105.4 L 116.8 104.7 L 111.1 111.7 C 123.8 119.5 136.1 122 145.2 118.3 L 148.4 117 L 147 120.2 C 143.8 127.5 139.3 134.1 133.5 139.6 L 133.2 139.9 L 132.7 140 C 129.2 140.4 125.4 140.2 121.5 139.3 L 121.4 139.3 C 116.5 138 111.6 136.1 106.7 133.7 C 103.6 132.2 100.5 130.4 97.5 128.4 L 92.5 134.5 L 88.5 105.4 Z');color:black;text-decoration:none;text-decoration-line:none;text-decoration-style:solid;text-decoration-color:black;fill:#b4762c;-webkit-text-emphasis-color:rgb(87, 165, 204);-webkit-text-fill-color:rgb(87, 165, 204);-webkit-text-stroke-color:rgb(87, 165, 204)"
            id="path20" />
      </g>
   </g>
   <g
      style="color:black;text-decoration:none;text-decoration-line:none;text-decoration-style:solid;text-decoration-color:black;-webkit-text-emphasis-color:rgb(87, 165, 204);-webkit-text-fill-color:rgb(87, 165, 204);-webkit-text-stroke-color:rgb(87, 165, 204)"
      id="g30">
      <g
         style="color:black;text-decoration:none;text-decoration-line:none;text-decoration-style:solid;text-decoration-color:black;-webkit-text-emphasis-color:rgb(87, 165, 204);-webkit-text-fill-color:rgb(87, 165, 204);-webkit-text-stroke-color:rgb(87, 165, 204)"
         id="g28">
         <path
            class="theme-secondary"
            d="m 74.1,57.6 -28.3,0.7 5.7,-7 C 38.8,43.5 26.5,41 17.4,44.7 L 14.3,46 15.7,42.8 C 18.9,35.5 23.4,28.9 29.2,23.4 L 29.5,23.1 30,23 c 3.5,-0.4 7.3,-0.2 11.2,0.7 h 0.1 c 4.9,1.3 9.8,3.2 14.7,5.6 3.1,1.5 6.2,3.3 9.2,5.3 l 5,-6.1 z"
            style="d:path('M 74.1 57.6 L 45.8 58.3 L 51.5 51.3 C 38.8 43.5 26.5 41 17.4 44.7 L 14.3 46 L 15.7 42.8 C 18.9 35.5 23.4 28.9 29.2 23.4 L 29.5 23.1 L 30 23 C 33.5 22.6 37.3 22.8 41.2 23.7 L 41.3 23.7 C 46.2 25 51.1 26.9 56 29.3 C 59.1 30.8 62.2 32.6 65.2 34.6 L 70.2 28.5 L 74.1 57.6 Z');color:black;text-decoration:none;text-decoration-line:none;text-decoration-style:solid;text-decoration-color:black;fill:#b4762c;-webkit-text-emphasis-color:rgb(87, 165, 204);-webkit-text-fill-color:rgb(87, 165, 204);-webkit-text-stroke-color:rgb(87, 165, 204)"
            id="path26" />
      </g>
   </g>
   <g
      style="color:black;text-decoration:none;text-decoration-line:none;text-decoration-style:solid;text-decoration-color:black;-webkit-text-emphasis-color:rgb(87, 165, 204);-webkit-text-fill-color:rgb(87, 165, 204);-webkit-text-stroke-color:rgb(87, 165, 204)"
      id="g36">
      <g
         style="color:black;text-decoration:none;text-decoration-line:none;text-decoration-style:solid;text-decoration-color:black;-webkit-text-emphasis-color:rgb(87, 165, 204);-webkit-text-fill-color:rgb(87, 165, 204);-webkit-text-stroke-color:rgb(87, 165, 204)"
         id="g34">
         <circle
            class="theme-primary"
            cx="81.400002"
            cy="80.800003"
            r="60.5"
            style="color:black;text-decoration:none;text-decoration-line:none;text-decoration-style:solid;text-decoration-color:black;fill:#da8e35;-webkit-text-emphasis-color:rgb(87, 165, 204);-webkit-text-fill-color:rgb(87, 165, 204);-webkit-text-stroke-color:rgb(87, 165, 204)"
            id="circle32" />
      </g>
   </g>
   <g
      style="color:black;text-decoration:none;text-decoration-line:none;text-decoration-style:solid;text-decoration-color:black;-webkit-text-emphasis-color:rgb(87, 165, 204);-webkit-text-fill-color:rgb(87, 165, 204);-webkit-text-stroke-color:rgb(87, 165, 204)"
      id="g40">
      <path
         style="d:path('M 59.3 59.5 C 55.8 57.9 53.2 56.3 50.6 54.4 C 46.6 51.6 42.9 48.5 39.8 45.2 C 32.2 37.5 28.2 29.6 29.3 23.1 L 27 25.6 C 21.5 31.4 14.2 41.6 14.1 46 C 14.2 46.5 14.2 46.5 14.2 46.5 C 15.2 49.9 16.8 53.3 19.1 56.6 L 19.1 56.7 C 22.1 61.5 28 69.4 49 78.6 L 45.3 85.6 L 73.6 78 L 63.5 51.5 L 59.3 59.5 Z');color:black;text-decoration:none;text-decoration-line:none;text-decoration-style:solid;text-decoration-color:black;fill:#ffffff;-webkit-text-emphasis-color:rgb(87, 165, 204);-webkit-text-fill-color:rgb(87, 165, 204);-webkit-text-stroke-color:rgb(87, 165, 204)"
         d="M 59.3,59.5 C 55.8,57.9 53.2,56.3 50.6,54.4 46.6,51.6 42.9,48.5 39.8,45.2 32.2,37.5 28.2,29.6 29.3,23.1 L 27,25.6 c -5.5,5.8 -12.8,16 -12.9,20.4 0.1,0.5 0.1,0.5 0.1,0.5 1,3.4 2.6,6.8 4.9,10.1 v 0.1 c 3,4.8 8.9,12.7 29.9,21.9 l -3.7,7 L 73.6,78 63.5,51.5 Z"
         id="path38" />
   </g>
   <g
      style="color:black;text-decoration:none;text-decoration-line:none;text-decoration-style:solid;text-decoration-color:black;-webkit-text-emphasis-color:rgb(87, 165, 204);-webkit-text-fill-color:rgb(87, 165, 204);-webkit-text-stroke-color:rgb(87, 165, 204)"
      id="g44">
      <path
         style="d:path('M 103.3 103.5 C 106.8 105.1 109.4 106.7 112 108.6 C 116 111.4 119.7 114.5 122.8 117.8 C 130.4 125.5 134.4 133.4 133.3 139.9 L 135.6 137.5 C 141.1 131.7 148.4 121.5 148.5 117.1 C 148.4 116.6 148.4 116.6 148.4 116.6 C 147.4 113.2 145.8 109.8 143.5 106.5 L 143.5 106.4 C 140.5 101.6 134.6 93.7 113.6 84.5 L 117.3 77.5 L 89 85.1 L 99.2 111.3 L 103.3 103.5 Z');color:black;text-decoration:none;text-decoration-line:none;text-decoration-style:solid;text-decoration-color:black;fill:#ffffff;-webkit-text-emphasis-color:rgb(87, 165, 204);-webkit-text-fill-color:rgb(87, 165, 204);-webkit-text-stroke-color:rgb(87, 165, 204)"
         d="m 103.3,103.5 c 3.5,1.6 6.1,3.2 8.7,5.1 4,2.8 7.7,5.9 10.8,9.2 7.6,7.7 11.6,15.6 10.5,22.1 l 2.3,-2.4 c 5.5,-5.8 12.8,-16 12.9,-20.4 -0.1,-0.5 -0.1,-0.5 -0.1,-0.5 -1,-3.4 -2.6,-6.8 -4.9,-10.1 v -0.1 c -3,-4.8 -8.9,-12.7 -29.9,-21.9 l 3.7,-7 -28.3,7.6 10.2,26.2 z"
         id="path42" />
   </g>
   <g
      style="color:black;text-decoration:none;text-decoration-line:none;text-decoration-style:solid;text-decoration-color:black;-webkit-text-emphasis-color:rgb(87, 165, 204);-webkit-text-fill-color:rgb(87, 165, 204);-webkit-text-stroke-color:rgb(87, 165, 204)"
      id="g48">
      <path
         style="d:path('M 104 59.3 C 105.6 55.8 107.2 53.2 109.1 50.6 C 111.9 46.6 115 42.9 118.3 39.8 C 126 32.2 133.9 28.2 140.4 29.3 L 138 27 C 132.2 21.5 122 14.2 117.6 14.1 C 117.1 14.2 117.1 14.2 117.1 14.2 C 113.7 15.2 110.3 16.8 107 19.1 L 106.9 19.1 C 102.1 22.1 94.2 28 85 49 L 78 45.3 L 85.6 73.6 L 112 63.6 L 104 59.3 Z');color:black;text-decoration:none;text-decoration-line:none;text-decoration-style:solid;text-decoration-color:black;fill:#ffffff;-webkit-text-emphasis-color:rgb(87, 165, 204);-webkit-text-fill-color:rgb(87, 165, 204);-webkit-text-stroke-color:rgb(87, 165, 204)"
         d="m 104,59.3 c 1.6,-3.5 3.2,-6.1 5.1,-8.7 2.8,-4 5.9,-7.7 9.2,-10.8 7.7,-7.6 15.6,-11.6 22.1,-10.5 L 138,27 c -5.8,-5.5 -16,-12.8 -20.4,-12.9 -0.5,0.1 -0.5,0.1 -0.5,0.1 -3.4,1 -6.8,2.6 -10.1,4.9 h -0.1 C 102.1,22.1 94.2,28 85,49 l -7,-3.7 7.6,28.3 26.4,-10 z"
         id="path46" />
   </g>
   <g
      style="color:black;text-decoration:none;text-decoration-line:none;text-decoration-style:solid;text-decoration-color:black;-webkit-text-emphasis-color:rgb(87, 165, 204);-webkit-text-fill-color:rgb(87, 165, 204);-webkit-text-stroke-color:rgb(87, 165, 204)"
      id="g52">
      <path
         style="d:path('M 58.2 103.2 C 56.6 106.7 55 109.3 53.1 111.9 C 50.3 115.9 47.2 119.6 43.9 122.7 C 36.2 130.3 28.3 134.3 21.8 133.2 L 24.2 135.5 C 30 141 40.2 148.3 44.6 148.4 C 45.1 148.3 45.1 148.3 45.1 148.3 C 48.5 147.3 51.9 145.7 55.2 143.4 L 55.3 143.4 C 60.1 140.4 68 134.5 77.2 113.5 L 84.2 117.2 L 76.6 88.9 L 50.3 98.9 L 58.2 103.2 Z');color:black;text-decoration:none;text-decoration-line:none;text-decoration-style:solid;text-decoration-color:black;fill:#ffffff;-webkit-text-emphasis-color:rgb(87, 165, 204);-webkit-text-fill-color:rgb(87, 165, 204);-webkit-text-stroke-color:rgb(87, 165, 204)"
         d="m 58.2,103.2 c -1.6,3.5 -3.2,6.1 -5.1,8.7 -2.8,4 -5.9,7.7 -9.2,10.8 -7.7,7.6 -15.6,11.6 -22.1,10.5 l 2.4,2.3 c 5.8,5.5 16,12.8 20.4,12.9 0.5,-0.1 0.5,-0.1 0.5,-0.1 3.4,-1 6.8,-2.6 10.1,-4.9 h 0.1 c 4.8,-3 12.7,-8.9 21.9,-29.9 l 7,3.7 -7.6,-28.3 -26.3,10 z"
         id="path50" />
   </g>
   </g>
</g></symbol>
<symbol id="npm" fill-rule="evenodd" clip-rule="evenodd" stroke-linejoin="round" stroke-miterlimit="1.414" viewBox="0 0 16 16"><g
   id="g6"
   transform="scale(0.0625485)">
   <polygon
      fill="#c12127"
      points="0,256 0,0 256,0 256,256 "
      id="polygon2" />
   <polygon
      fill="#ffffff"
      points="176,80 128,80 128,208 48,208 48,48 208,48 208,208 176,208 "
      id="polygon4" />
</g></symbol>
<symbol id="kofi" fill-rule="evenodd" clip-rule="evenodd" stroke-linejoin="round" stroke-miterlimit="1.414" viewBox="0 0 16 16"><g
    id="g8"
    transform="matrix(1.3333333,0,0,-1.3333333,0,800)">
  <g
      id="g10"
      transform="matrix(0.00539328,0,0,0.00539328,0,565.48527)">
    <path
        d="m 2224.9912,5287.0879 c 0,614.4164 -498.0792,1112.4955 -1112.4957,1112.4955 C 498.0791,6399.5834 0,5901.5043 0,5287.0879 0,4672.6714 498.0791,4174.5922 1112.4955,4174.5922 c 614.4165,0 1112.4957,498.0792 1112.4957,1112.4957"
        style="fill:#50aee4;fill-opacity:1;fill-rule:nonzero;stroke:none;stroke-width:0.370832"
        id="path12" />
    <path
        d="m 2033.742,5457.1773 c -23.4329,123.7614 -90.0528,200.8573 -158.334,248.5277 -70.6101,49.3021 -155.1857,74.6337 -241.3078,74.6337 H 411.89406 c -42.51809,0 -58.80428,-41.5109 -58.96485,-62.3034 -0.0219,-2.7108 0.0767,-13.5614 0.0767,-13.5614 0,0 -2.00509,-540.721 1.79185,-829.5249 11.53473,-170.5011 182.36325,-170.4454 182.36325,-170.4454 0,0 557.74599,1.6353 825.23069,3.2967 12.5453,0.082 25.0719,1.4314 37.2464,4.4759 152.2931,38.103 168.0498,179.5864 166.4219,258.455 306.1143,-17.0064 522.1017,199.0031 467.682,486.4461 m -343.876,-280.6271 c -65.285,-8.1582 -118.3252,-2.032 -118.3252,-2.032 v 399.7381 h 80.3297 c 53.092,0 104.3038,-22.1053 138.947,-62.3369 24.3859,-28.3241 43.8954,-68.1884 43.8954,-123.2533 0,-134.6083 -69.3604,-187.6409 -144.8469,-212.1159"
        style="fill:#ffffff;fill-opacity:1;fill-rule:nonzero;stroke:none;stroke-width:0.370832"
        id="path14" />
    <path
        d="m 951.60646,4928.7418 c 13.29432,-6.6935 21.78636,1.6244 21.78636,1.6244 0,0 194.52728,177.5468 282.16228,279.7962 77.9488,91.4695 83.0293,245.6169 -50.8299,303.2145 -133.8592,57.5938 -243.98887,-67.7584 -243.98887,-67.7584 -95.50773,105.0419 -240.05428,99.7241 -306.91157,28.6356 -66.85355,-71.0885 -43.50599,-193.1033 6.36719,-261.0063 46.81752,-63.7461 252.60324,-247.1595 283.79391,-278.1795 0,0 2.27321,-2.3733 7.6206,-6.3265"
        style="fill:#f14255;fill-opacity:1;fill-rule:nonzero;stroke:none;stroke-width:0.370832"
        id="path16" />
  </g>
</g></symbol>
<symbol id="joplin" fill-rule="evenodd" clip-rule="evenodd" stroke-linejoin="round" stroke-miterlimit="1.414" viewBox="0 0 16 16">	<defs
   id="defs6">
		<linearGradient
   x1="0"
   y1="0"
   x2="1"
   y2="0"
   gradientUnits="userSpaceOnUse"
   gradientTransform="matrix(-4387.91,4387.91,4387.91,4387.91,4753.95,366.05)"
   spreadMethod="pad"
   id="linearGradient26">
			<stop
   style="stop-opacity:1;stop-color:#004caf"
   offset="0"
   id="stop22" />
			<stop
   style="stop-opacity:1;stop-color:#1f95f8"
   offset="1"
   id="stop24" />
		</linearGradient>
	</defs>
	<g
   id="g10"
   transform="matrix(0.03125,0,0,-0.03125,0,16.00002)">
		<g
   id="g12"
   transform="scale(0.1)">
			<g
   id="g14">
				<g
   id="g16"
   clip-path="url(#clipPath20)">
					<path
   d="M 3873.89,0 H 1246.11 C 560.754,0 0,560.75 0,1246.11 V 3873.88 C 0,4559.25 560.754,5120 1246.11,5120 H 3873.89 C 4559.25,5120 5120,4559.25 5120,3873.88 V 1246.11 C 5120,560.75 4559.25,0 3873.89,0"
   style="fill:url(#linearGradient26);fill-opacity:1;fill-rule:nonzero;stroke:none"
   id="path28" />
				</g>
			</g>
			<path
   d="M 3961.59,4435.23 H 2570.18 c -13.15,0 -23.78,-10.64 -23.78,-23.77 v -441.84 c 0,-14.87 12.04,-26.92 26.92,-26.92 h 190.77 c 77.16,0 139.73,-59.35 146.43,-134.77 V 3505 3336.23 1728.75 1717.36 h -0.05 c 0.48,-16.84 -0.19,-33.4 -1.83,-49.71 -0.18,-2.38 -0.5,-4.73 -0.79,-7.09 -1.1,-9.53 -2.32,-19.01 -4.17,-28.29 -1.01,-5.29 -2.44,-10.44 -3.71,-15.65 -1.71,-6.93 -3.09,-13.97 -5.22,-20.75 -12.58,-40.27 -32.47,-77.62 -59.98,-110.5 -1.01,-1.17 -2.26,-2.25 -3.26,-3.41 -8.39,-9.72 -17.2,-19.19 -26.95,-28.06 -9.84,-8.95 -20.26,-17.27 -31.21,-25 -77.84,-55.14 -182.61,-79.4 -299.67,-68.2 -149.26,14.03 -297.34,81.72 -417.03,190.62 -119.67,108.89 -194.08,243.62 -209.48,379.41 -13.85,121.48 22.55,228.38 102.42,301.05 0.21,0.16 0.4,0.31 0.56,0.48 3.09,2.77 6.49,5.2 9.67,7.87 57.16,47.89 131.67,76.91 216.7,84.91 0.96,0.09 1.88,0.24 2.79,0.32 8.95,0.79 18.07,1.15 27.27,1.49 4.81,0.16 9.56,0.5 14.44,0.54 1.62,0.02 3.16,0.19 4.78,0.19 2.9,0 5.91,-0.38 8.81,-0.42 13.4,-0.21 26.9,-0.76 40.67,-1.94 1.74,-0.14 3.4,-0.08 5.19,-0.24 1.27,-0.13 2.53,-0.41 3.8,-0.54 78,-7.82 155.23,-31.11 228.52,-66.4 1.53,-0.07 3.3,-0.54 5.51,-1.76 22.34,-12.34 26.62,0.9 27.28,9.65 v 382.24 282.82 c 0,19.05 -13.25,35.9 -31.83,39.99 -394.76,86.88 -782.08,-3.55 -1055.38,-252.34 -238.75,-217.18 -354.24,-530.58 -316.82,-859.79 33.39,-293.23 183.91,-574.94 423.88,-793.33 233.89,-212.79 531.69,-345.86 838.88,-374.801 42.33,-3.918 84.86,-5.938 126.36,-5.938 293.38,0 565.61,100.598 766.54,283.379 190.34,173.3 304.35,411.27 321.08,670.16 l 1.55,1697.91 h 0.17 v 453.97 h 0.06 v 7.92 c 1.72,80.12 67.05,144.58 147.61,144.58 h 190.77 c 14.86,0 26.92,12.05 26.92,26.92 v 441.84 c 0,13.13 -10.63,23.77 -23.78,23.77"
   style="fill:#ffffff;fill-opacity:1;fill-rule:nonzero;stroke:none"
   id="path30" />
		</g>
	</g></symbol>
<symbol id="rss" fill-rule="evenodd" clip-rule="evenodd" stroke-linejoin="round" stroke-miterlimit="1.414" viewBox="0 0 16 16"><path d="M12.8 16C12.8 8.978 7.022 3.2 0 3.2V0c8.777 0 16 7.223 16 16h-3.2zM2.194 11.61c1.21 0 2.195.985 2.195 2.196 0 1.21-.99 2.194-2.2 2.194C.98 16 0 15.017 0 13.806c0-1.21.983-2.195 2.194-2.195zM10.606 16h-3.11c0-4.113-3.383-7.497-7.496-7.497v-3.11c5.818 0 10.606 4.79 10.606 10.607z"/>
</symbol>
</svg>
