<svg viewBox="-1 -1.5 20.799 20.093" width="20.799" fill="currentColor" version="1.1" id="svg4" height="20.093" xmlns="http://www.w3.org/2000/svg"><path d="m12.728 5.572 3.535-3.536-.707-.707-3.535 3.535zm-1.415 1.414-.707-.707-9.19 9.191.706.707 9.192-9.192zm4.95-7.778 2.121 2.12a1 1 0 0 1 0 1.415L2.828 18.3a1 1 0 0 1-1.414 0l-2.12-2.12a1 1 0 0 1 0-1.415L14.848-.792a1 1 0 0 1 1.414 0zM7.071-1.5l1.393.704L9.9-1.5 9.22-.04l.68 1.368L8.515.664l-1.444.664.69-1.42L7.07-1.5zm9.9 7.07 1.393.705 1.435-.704-.68 1.46.68 1.368-1.384-.664-1.445.664.69-1.42-.69-1.408z" id="path2"/></svg>