<svg version="1.1" id="Layer_1" x="0" y="0" viewBox="0 0 512 512" style="enable-background:new 0 0 512 512" xml:space="preserve" xmlns="http://www.w3.org/2000/svg"><g id="g6" style="stroke:none;stroke-opacity:1"><path d="M512 44.8v108.8H384v-44.8c0-45.95 37.25-83.2 83.2-83.2h25.6c10.6 0 19.2 8.6 19.2 19.2zm0 147.2v128H384V192h128zm-19.2 294.4c10.6 0 19.2-8.6 19.2-19.2V358.4H384v44.8c0 45.95 37.25 83.2 83.2 83.2h25.6zM0 467.2c0 10.6 8.6 19.2 19.2 19.2h25.6c45.95 0 83.2-37.25 83.2-83.2v-44.8H0v108.8zM0 192v128h128V192H0zM0 44.8v108.8h128v-44.8c0-45.95-37.25-83.2-83.2-83.2H19.2C8.6 25.6 0 34.2 0 44.8zm236.8 301.38V492.8c0 10.6 8.6 19.2 19.2 19.2s19.2-8.6 19.2-19.2V346.18l-1.94-1.84L256 327.08l-17.26 17.26-1.94 1.84zm0-173.96 1.94 1.84L256 191.32l17.26-17.26 1.94-1.84V19.2C275.2 8.6 266.6 0 256 0s-19.2 8.6-19.2 19.2v153.02zm-45.58 148.56c-7.5-7.5-7.5-19.65 0-27.15L228.85 256l-37.62-37.62c-7.5-7.5-7.5-19.65 0-27.15s19.65-7.5 27.15 0L256 228.85l37.62-37.62c7.5-7.5 19.65-7.5 27.15 0s7.5 19.65 0 27.15L283.15 256l37.62 37.62c7.5 7.5 7.5 19.65 0 27.15s-19.65 7.5-27.15 0L256 283.15l-37.62 37.62c-7.5 7.5-19.66 7.5-27.16.01z" id="path4" style="stroke:none;stroke-opacity:1;opacity:1;fill:#000;fill-opacity:1"/></g></svg>