<svg version="1.1" id="Layer_1" x="0" y="0" viewBox="0 0 512 512" style="enable-background:new 0 0 512 512" xml:space="preserve" xmlns="http://www.w3.org/2000/svg"><g id="g6"><path d="M44.8 0h108.8v128h-44.8c-45.95 0-83.2-37.25-83.2-83.2V19.2C25.6 8.6 34.2 0 44.8 0zM192 0h128v128H192V0zm294.4 19.2c0-10.6-8.6-19.2-19.2-19.2H358.4v128h44.8c45.95 0 83.2-37.25 83.2-83.2V19.2zM467.2 512c10.6 0 19.2-8.6 19.2-19.2v-25.6c0-45.95-37.25-83.2-83.2-83.2h-44.8v128h108.8zM192 512h128V384H192v128zm-147.2 0h108.8V384h-44.8c-45.95 0-83.2 37.25-83.2 83.2v25.6c0 10.6 8.6 19.2 19.2 19.2zm301.38-236.8H492.8c10.6 0 19.2-8.6 19.2-19.2s-8.6-19.2-19.2-19.2H346.18l-1.84 1.94L327.08 256l17.26 17.26 1.84 1.94zm-173.96 0 1.84-1.94L191.32 256l-17.26-17.26-1.84-1.94H19.2C8.6 236.8 0 245.4 0 256s8.6 19.2 19.2 19.2h153.02zm148.56 45.58c-7.5 7.5-19.65 7.5-27.15 0L256 283.15l-37.62 37.62c-7.5 7.5-19.65 7.5-27.15 0s-7.5-19.65 0-27.15L228.85 256l-37.62-37.62c-7.5-7.5-7.5-19.65 0-27.15s19.65-7.5 27.15 0L256 228.85l37.62-37.62c7.5-7.5 19.65-7.5 27.15 0s7.5 19.65 0 27.15L283.15 256l37.62 37.62c7.5 7.5 7.5 19.66.01 27.16z" id="path4" style="fill:#000;fill-opacity:1"/></g></svg>